<svg width="31" height="31" viewBox="0 0 31 31" fill="none" xmlns="http://www.w3.org/2000/svg">
<circle cx="15.208" cy="15.7656" r="14.1" stroke="black" stroke-width="1.8"/>
<path d="M10.3721 5.91016L8.78623 15.5631L11.5067 6.1292L11.515 6.09815L10.3721 5.91016ZM14.3763 6.56854L21.2707 8.55363L21.4073 7.72465L14.3763 6.56854ZM12.1196 6.69359L7.55518 22.5238L18.2976 25.6211L22.8607 9.78675L12.1196 6.69359ZM12.5088 8.78676L21.4197 11.3561L21.2127 12.0683L12.3018 9.50104L12.5088 8.78676ZM13.4984 12.5197L18.5916 13.9855L18.3846 14.6977L13.2914 13.2319L13.4984 12.5197ZM14.3059 14.9959C14.6993 14.9959 15.0968 15.0497 15.4943 15.1656C17.7966 15.8282 19.134 18.2422 18.4674 20.5445C17.8048 22.8509 15.3908 24.1842 13.0885 23.5176C10.7821 22.8551 9.44875 20.441 10.1113 18.1387C10.662 16.2298 12.4136 14.9876 14.3059 14.9959ZM14.3017 15.7371C13.3162 15.7329 12.3804 16.1346 11.7055 16.8261L13.1713 17.2484C13.5026 16.677 13.9249 16.1594 14.4177 15.7371H14.3017ZM15.2376 16.0559C14.72 16.412 14.2728 16.9006 13.9167 17.4638L15.6061 17.9524C15.602 17.2857 15.486 16.6315 15.2376 16.0559ZM16.0988 16.2215C16.2935 16.8426 16.3721 17.5052 16.3514 18.1677L17.8173 18.5901C17.6061 17.6045 16.9891 16.7391 16.0988 16.2215ZM11.2169 17.4596C11.0512 17.7288 10.9187 18.0269 10.8276 18.3457C10.7365 18.6604 10.691 18.9793 10.6868 19.2898L12.2976 19.7536C12.3432 19.4389 12.4136 19.1284 12.5005 18.8219C12.5875 18.5155 12.6993 18.2132 12.8276 17.9234L11.2169 17.4596ZM13.5523 18.1304C13.4156 18.4203 13.3038 18.7226 13.2169 19.029C13.1299 19.3354 13.0637 19.6501 13.0264 19.9648L15.0305 20.5445C15.163 20.2546 15.279 19.9565 15.3659 19.6459C15.4529 19.3395 15.5191 19.0248 15.5564 18.7101L13.5523 18.1304ZM16.2852 18.9172C16.2396 19.2319 16.1692 19.5466 16.0823 19.853C15.9953 20.1594 15.8835 20.4617 15.7552 20.7557L17.3659 21.2194C17.5274 20.9503 17.6599 20.6563 17.751 20.3375C17.8421 20.0186 17.8877 19.6998 17.8959 19.3809L16.2852 18.9172ZM10.7614 20.0849C10.9684 21.0745 11.5895 21.9482 12.4922 22.4658C12.2935 21.8406 12.2107 21.178 12.2314 20.5072L10.7614 20.0849ZM12.9767 20.7226C12.9808 21.3934 13.0968 22.0435 13.3452 22.6232C13.8628 22.2629 14.31 21.7743 14.6703 21.2112L12.9767 20.7226ZM15.4115 21.4265C15.0761 22.0021 14.6537 22.5196 14.1568 22.942C15.192 22.9834 16.1775 22.5735 16.8815 21.8488L15.4115 21.4265Z" fill="black"/>
</svg>
