<svg width="31" height="31" viewBox="0 0 31 31" fill="none" xmlns="http://www.w3.org/2000/svg">
<circle cx="15.3516" cy="15.5859" r="14.1" stroke="black" stroke-width="1.8"/>
<path d="M9.99521 26.2323L23.7427 24.0273L20.7079 4.94169L6.96045 7.14661L9.99521 26.2323Z" fill="black"/>
<path d="M14.4959 13.1788C16.213 13.1788 17.605 11.7808 17.605 10.0562C17.605 8.33163 16.213 6.93359 14.4959 6.93359C12.7787 6.93359 11.3867 8.33163 11.3867 10.0562C11.3867 11.7808 12.7787 13.1788 14.4959 13.1788Z" fill="#F1EDCD"/>
<path d="M15.4367 11.8202C15.4709 12.0204 15.3371 12.2106 15.1382 12.2448L14.6176 12.3342C14.4187 12.3684 14.2291 12.234 14.1951 12.0343L13.5576 8.29276C13.5233 8.09254 13.6574 7.9026 13.8563 7.86867L14.3772 7.77874C14.5761 7.74457 14.765 7.87919 14.7992 8.07896L15.4367 11.8202Z" fill="#F12323"/>
<path d="M12.7407 10.9985C12.5416 11.0327 12.3522 10.8985 12.3182 10.6983L12.2289 10.1754C12.195 9.97558 12.3289 9.78569 12.5278 9.75102L16.2532 9.11076C16.4523 9.07659 16.6417 9.21146 16.6757 9.41099L16.765 9.93346C16.7988 10.1337 16.6647 10.3239 16.466 10.358L12.7407 10.9985Z" fill="#F12323"/>
<path d="M9.94321 17.2084L21.1548 15.4102L21.0415 14.6976L9.82991 16.4958L9.94321 17.2084Z" fill="white"/>
<path d="M10.2666 18.9896L21.478 17.1914L21.3647 16.4789L10.1533 18.277L10.2666 18.9896Z" fill="white"/>
<path d="M10.5653 20.8802L21.7769 19.082L21.6636 18.3695L10.452 20.1677L10.5653 20.8802Z" fill="white"/>
<path d="M17.845 21.7168L10.8785 22.8346L10.7456 21.9986L17.7175 20.9141L17.845 21.7168Z" stroke="white" stroke-width="1.18358" stroke-miterlimit="10"/>
<path d="M8.26538 15.3039L8.30225 15.5352L22.0478 13.3247L22.011 13.0935L8.26538 15.3039Z" fill="white"/>
</svg>
