<svg width="31" height="31" viewBox="0 0 31 31" fill="none" xmlns="http://www.w3.org/2000/svg">
<circle cx="15.3516" cy="15.9297" r="14.1" stroke="black" stroke-width="1.8"/>
<path d="M19.0249 7.17333C18.8331 7.50824 18.7215 7.855 18.6569 8.15879C18.4902 8.94328 18.8098 9.75983 19.4708 10.2141C19.8131 10.4494 20.2062 10.6441 20.5651 10.7958C21.1499 11.0431 21.8195 10.7218 21.9989 10.1128L22.4274 8.65805C22.7098 7.69895 22.1881 6.68726 21.2429 6.36125C20.4046 6.0721 19.4655 6.40381 19.0249 7.17333Z" fill="black"/>
<path d="M22.6743 24.4728L19.8897 17.7144L20.6797 13.369C20.7469 12.9998 20.6962 12.6174 20.526 12.2829C20.2326 11.7059 19.5996 10.9421 18.2943 10.8811C18.2943 10.8811 18.1635 10.8618 17.9749 10.892C17.6004 10.952 17.2737 11.1798 17.0705 11.4999L13.9708 16.382C13.8327 16.5995 13.8287 16.8647 13.9381 17.0797L12.6734 18.8842L10.5804 17.4115C10.111 17.0812 9.46276 17.194 9.13246 17.6634L7.16099 20.4655C6.50213 21.402 6.72719 22.6952 7.66362 23.3541L8.15539 23.7C8.10225 23.8496 8.07187 24.0098 8.07187 24.1775C8.07187 24.9666 8.71148 25.6062 9.50053 25.6062C10.2896 25.6062 10.9292 24.9666 10.9292 24.1775C10.9292 23.8545 10.8207 23.5574 10.6398 23.3182L14.7621 17.4364C14.9097 17.3937 15.0444 17.3031 15.1402 17.1685L17.6734 13.6083L16.9856 16.629C16.8946 17.0282 16.9588 17.4471 17.1651 17.8008L21.5794 25.3701C21.6647 25.5163 21.8212 25.6062 21.9905 25.6062H23.4697C23.6488 25.6062 23.7653 25.4193 23.6876 25.2579C23.5497 24.9714 23.2607 24.5936 22.6743 24.4728ZM10.2229 24.1775C10.2229 24.5765 9.89952 24.8999 9.50057 24.8999C9.10163 24.8999 8.77822 24.5765 8.77822 24.1775C8.77822 24.1648 8.77945 24.1522 8.78013 24.1396C8.79947 23.769 9.09738 23.473 9.46873 23.4568C9.47936 23.4563 9.48981 23.4552 9.50057 23.4552C9.73366 23.4552 9.94039 23.5661 10.0724 23.7374C10.1236 23.8038 10.1639 23.8789 10.1897 23.9606C10.2112 24.0291 10.2229 24.1019 10.2229 24.1775Z" fill="black"/>
<path d="M17.3096 19.1957C17.1934 19.0135 16.9149 19.0592 16.8648 19.2694C16.4318 21.0884 15.1733 22.9134 14.4486 23.7057C14.2341 23.9401 14.2153 24.2935 14.3993 24.5525L15.0166 25.4213C15.0993 25.5377 15.2331 25.6067 15.3758 25.6067H15.901C16.0039 25.6067 16.0823 25.5169 16.0717 25.4145C16.0172 24.8802 15.7585 24.4358 15.7585 24.4358C17.0909 23.0408 17.8082 21.6761 18.1125 21.0004C18.2024 20.8009 18.1861 20.5702 18.0685 20.3857L17.3096 19.1957Z" fill="black"/>
<path d="M21.2553 14.7206C21.1601 14.6265 20.9984 14.6759 20.9722 14.8073L20.735 15.9982C20.7168 16.0899 20.7485 16.1843 20.8184 16.2464L22.883 18.0818C23.1537 18.3224 23.5719 18.2823 23.7919 17.9946C23.9824 17.7455 23.958 17.3936 23.7351 17.1731L21.2553 14.7206Z" fill="black"/>
</svg>
