<svg width="30" height="31" viewBox="0 0 30 31" fill="none" xmlns="http://www.w3.org/2000/svg">
<circle cx="15" cy="15.1094" r="14.1" stroke="black" stroke-width="1.8"/>
<path d="M21.3451 22.8196L22.8038 21.3587C22.9411 21.222 23.0479 21.0577 23.117 20.8767C23.1862 20.6956 23.2162 20.502 23.205 20.3085C23.1938 20.1151 23.1418 19.9262 23.0522 19.7543C22.9627 19.5824 22.8378 19.4315 22.6856 19.3115L20.3934 17.5327C20.1527 17.3435 19.8554 17.2406 19.5492 17.2406C19.243 17.2406 18.9456 17.3435 18.7049 17.5327L18.1979 17.9366C17.9351 18.1448 17.6049 18.2492 17.2702 18.2298C16.9355 18.2104 16.6196 18.0685 16.3826 17.8313L12.3009 13.7496C12.0604 13.5121 11.9162 13.194 11.896 12.8565C11.8758 12.5191 11.981 12.1861 12.1914 11.9215L12.5888 11.4209C12.7778 11.1797 12.8805 10.8821 12.8805 10.5756C12.8805 10.2691 12.7778 9.97148 12.5888 9.73024L10.8229 7.44665C10.704 7.29332 10.5537 7.16711 10.3821 7.0764C10.2106 6.98569 10.0216 6.93257 9.82794 6.92058C9.63424 6.90859 9.44021 6.938 9.25877 7.00685C9.07733 7.07571 8.91263 7.18242 8.77565 7.3199L7.31699 8.77857C6.3116 9.77321 6.3159 12.6046 11.9186 18.2137C17.5212 23.8228 20.4213 23.7369 21.3451 22.8196Z" fill="black"/>
</svg>
